<svg xmlns="http://www.w3.org/2000/svg" viewBox="0 0 24 24">
  <defs>
    <linearGradient id="zenGrad" x1="0%" y1="0%" x2="100%" y2="100%">
      <stop offset="0%" stop-color="#F76F53"/>
      <stop offset="50%" stop-color="#E85D75"/>
      <stop offset="100%" stop-color="#C44569"/>
    </linearGradient>
  </defs>
  <circle cx="12" cy="12" r="11" fill="url(#zenGrad)" opacity="0.95"/>
  <path fill="#FFFFFF" d="M12 3.5c4.694 0 8.5 3.806 8.5 8.5S16.694 20.5 12 20.5 3.5 16.694 3.5 12 7.306 3.5 12 3.5zm0 1.8a6.7 6.7 0 1 0 0 13.4 6.7 6.7 0 0 0 0-13.4zm0 1.6a5.1 5.1 0 1 1 0 10.2 5.1 5.1 0 0 1 0-10.2zm0 1.5a3.6 3.6 0 1 0 0 7.2 3.6 3.6 0 0 0 0-7.2z"/>
</svg>
