<svg xmlns="http://www.w3.org/2000/svg" viewBox="0 0 512 512">
  <defs>
    <linearGradient id="g1" x1="0%" y1="0%" x2="100%" y2="100%">
      <stop offset="0%" stop-color="#8E8E93"/>
      <stop offset="100%" stop-color="#636366"/>
    </linearGradient>
    <linearGradient id="g2" x1="0%" y1="0%" x2="100%" y2="100%">
      <stop offset="0%" stop-color="#AEAEB2"/>
      <stop offset="100%" stop-color="#8E8E93"/>
    </linearGradient>
    <linearGradient id="g3" x1="0%" y1="0%" x2="100%" y2="100%">
      <stop offset="0%" stop-color="#D1D1D6"/>
      <stop offset="100%" stop-color="#AEAEB2"/>
    </linearGradient>
  </defs>
  <circle cx="256" cy="256" r="240" fill="#2C2C2E"/>
  <g transform="translate(256 256)">
    <path fill="url(#g1)" d="M-20-120a28 28 0 0 1 40 0l8 14a100 100 0 0 1 84 84l14 8a28 28 0 0 1 0 40l-12 12a28 28 0 0 1-40 0l-10-10a100 100 0 0 1-84 0l-10 10a28 28 0 0 1-40 0l-12-12a28 28 0 0 1 0-40l14-8a100 100 0 0 1 84-84z"/>
    <circle fill="url(#g2)" cx="90" cy="-30" r="72"/>
    <circle fill="url(#g3)" cx="-70" cy="50" r="56"/>
    <circle fill="url(#g1)" cx="10" cy="100" r="48"/>
  </g>
</svg>
