<svg xmlns="http://www.w3.org/2000/svg" viewBox="0 0 168 168">
  <path fill="#1ED760" d="M0 0h168v168H0z"/>
  <path fill="#121212" d="M122.8 121.2c-2.4-.6-4.9-.9-7.4-.9-24.6 0-45.4 20.8-45.4 45.4 0 2.5.3 5 .9 7.4.3 1.3 1.6 2.1 2.9 1.8 1.3-.3 2.1-1.6 1.8-2.9-.5-2.1-.8-4.3-.8-6.3 0-20.4 16.6-37 37-37 2 0 4.2.3 6.3.8 1.3.3 2.6-.5 2.9-1.8.3-1.3-.5-2.6-1.8-2.9zm10.9-19.4c-2.9-.7-5.9-1.1-9-1.1-34.1 0-61.7 27.6-61.7 61.7 0 3.1.4 6.1 1.1 9 .3 1.8 2 3 3.8 2.7 1.8-.3 3-2 2.7-3.8-.6-2.6-.9-5.2-.9-7.9 0-29.7 24.2-53.9 53.9-53.9 2.7 0 5.3.3 7.9.9 1.8.3 3.5-.9 3.8-2.7.3-1.8-.9-3.5-2.7-3.8zm12.1-19.3C148.5 77.8 122.4 60 92 60c-31.1 0-56.3 25.2-56.3 56.3 0 4.2.5 8.3 1.4 12.3.4 2.1 2.5 3.4 4.6 3 2.1-.4 3.4-2.5 3-4.6-.8-3.6-1.2-7.3-1.2-11.1 0-26.8 21.8-48.6 48.6-48.6 3.8 0 7.5.4 11.1 1.2 2.1.4 4.2-.9 4.6-3 .4-2.1-.9-4.2-3-4.6z"/>
</svg>
