<svg xmlns="http://www.w3.org/2000/svg" viewBox="0 0 256 256" role="img" aria-label="Spotify">
  <circle cx="128" cy="128" r="128" fill="#1ED760"/>
  <path fill="#191414" d="M186 148.8c-28.8-17.1-76.2-18.7-103.6-5.3-.5.2-.5.7-.4 1 .1.5.5.6.6.7 11.7 8 41.3 21.6 76.6 17.5 5.8-.6 10.8-2.6 14.9-5.1.9-.6 1.8-1.5 1.8-2.8 0-1.6-1.3-2.5-2.1-3.2zm-8.5 29.8c-23.4-13.9-58.7-15.2-79.8-8.5-.4.2-.5.5-.3.9.2.5.4.7.5.8 9.4 6.4 33.1 17.2 61.3 14.1 4.7-.4 8.7-2.2 12-4.3.7-.5 1.4-1.2 1.4-2.3 0-1.3-1.1-2-1.8-2.7zm-7.6 28.4c-18.7-11.1-47-12.1-63.8-6.8-.3.1-.4.4-.2.7.2.4.3.5.4.6 7.5 5.1 26.4 13.7 49 11.2 3.7-.3 6.9-1.7 9.6-3.4.6-.4 1.2-1 1.2-1.9 0-1.1-.9-1.7-1.5-2.3z"/>
</svg>
